<svg height="512" viewBox="0 0 512 512" width="512" xmlns="http://www.w3.org/2000/svg"><g><path d="m330.613 352.313c-12.629 10.089-24.508 17.922-37.137 28.011-14.545-13.723-30.4-28.785-44.948-42.508-36.873 5.762-72.3-1.6-102.389-23.676 16.575-8.618 32.236-23.667 50.907-24.317 39.759-1.385 79.419 21.216 98.492 56.129 10.821-8.365 26.353-4.174 35.075 6.361z" fill="#dff1fc"/><path d="m295.538 345.952c-19.074-34.913-58.733-57.514-98.492-56.13-18.671.651-34.332 15.7-50.907 24.318 30.092 22.073 65.516 29.438 102.389 23.675 11 10.383 22.758 21.53 34.128 32.286a155.318 155.318 0 0 0 13.644-24.701c-.259.181-.513.36-.762.552z" fill="#212021"/><g><path d="m200 496a80 80 0 1 1 80-80 80.091 80.091 0 0 1 -80 80zm0-144a64 64 0 1 0 64 64 64.072 64.072 0 0 0 -64-64z" fill="#333"/><path d="m400 400a80 80 0 1 1 80-80 80.091 80.091 0 0 1 -80 80zm0-144a64 64 0 1 0 64 64 64.072 64.072 0 0 0 -64-64z" fill="#333"/><path d="m404.109 313.219-113.595-68.275 3.5-6.986 13.621-6.8a8 8 0 0 0 4.427-7.152l.015-19.055 11.582-5.781a8 8 0 1 0 -7.145-14.316l-16.006 7.988a8 8 0 0 0 -4.428 7.158l-.015 19.056-8.617 4.3-20.848-6.971a8 8 0 0 0 -5.06 0l-24.006 7.981a8 8 0 1 0 5.049 15.184l21.475-7.141 12.716 4.25-3.884 7.741a8 8 0 0 0 3.031 10.441l119.945 72.092a8 8 0 0 0 8.243-13.715z" fill="#35495e"/><path d="m303.919 384.547v-.012l8.092-119.993a8 8 0 0 0 -4.4-7.691l-15.846-7.939-.018-.009-.13-.065c-.06-.03-.121-.051-.182-.08-.164-.077-.329-.153-.5-.218-.1-.039-.2-.071-.3-.106-.142-.049-.284-.1-.428-.138s-.261-.067-.392-.1-.232-.053-.349-.075c-.151-.027-.3-.047-.453-.065-.1-.013-.2-.027-.306-.035-.156-.014-.313-.019-.469-.023-.1 0-.2-.006-.305 0-.149 0-.3.011-.446.021-.112.008-.224.015-.336.028-.133.015-.266.035-.4.057s-.253.041-.379.068-.23.054-.344.083c-.139.036-.277.073-.414.117-.1.032-.2.069-.3.1-.143.052-.285.1-.424.164-.1.042-.195.089-.292.135-.134.064-.267.128-.4.2-.107.059-.211.123-.315.186s-.226.137-.337.212-.242.174-.362.265c-.085.065-.172.128-.255.2-.137.113-.266.234-.4.357-.051.048-.1.09-.155.139l-.109.109v.005l-63.93 63.836c-.033.032-.059.068-.091.1-.061.063-.117.13-.176.195-.158.174-.308.352-.447.536-.054.07-.105.14-.156.212q-.228.321-.42.657c-.025.045-.054.087-.078.132a7.964 7.964 0 0 0 -.416.883c-.006.017-.011.035-.018.052a7.691 7.691 0 0 0 -.272.849c-.01.033-.024.065-.032.1l-24.074 95.982a8 8 0 0 0 10.283 9.538l96.025-31.926c.041-.014.078-.034.118-.048.255-.09.5-.191.747-.305.055-.026.112-.049.166-.076a8.039 8.039 0 0 0 .807-.461c.06-.039.117-.083.176-.124.2-.139.4-.286.583-.443.067-.056.134-.111.2-.169a8.148 8.148 0 0 0 .654-.647c.009-.01.017-.022.025-.032a7.565 7.565 0 0 0 .551-.707c.044-.062.086-.126.128-.19a7.752 7.752 0 0 0 .415-.7c.02-.038.043-.076.063-.115a7.874 7.874 0 0 0 .376-.886c.019-.053.034-.108.051-.161a7.877 7.877 0 0 0 .213-.77c.011-.047.029-.091.038-.139s.008-.07.015-.106a8.116 8.116 0 0 0 .121-.877c.002-.034.007-.06.009-.087zm-68.274-64.939 53.964-53.881 6.082 3.046-6.635 98.386zm-24.426 84.126 17.315-69.034 51.75 46.071z" fill="#e22526"/></g><path d="m159.534 184.787a163.633 163.633 0 0 0 -103.815 28.554c-4.719 3.276-9.374 6.924-12.327 11.852s-3.9 11.417-1.047 16.4a12.9 12.9 0 0 0 14.605 5.713 12.9 12.9 0 0 0 8.706-13.043c2.462 5.311 9.623 6.536 15.149 4.6a12.35 12.35 0 0 0 7.653-14.063c22.272-8.041 44.524-9.734 67.915-6.054 8.292 1.305 17.655 3.11 24.382-1.912 7.023-5.244 7.5-16.538 2.255-23.563s-14.733-7.871-23.476-8.484z" fill="#eaaa94"/><path d="m183.01 193.268c-5.241-7.026-14.733-7.868-23.476-8.481a163.811 163.811 0 0 0 -84.365 17.026 66.107 66.107 0 0 0 13.563 24.9 10.6 10.6 0 0 0 -.274-1.919c22.272-8.041 44.524-9.734 67.915-6.054 8.292 1.305 17.655 3.11 24.381-1.912 7.024-5.241 7.497-16.535 2.256-23.56z" fill="#f98800"/><path d="m218.922 316.235c6.822 25.781 15.823 54.551 22.645 80.332a17.259 17.259 0 0 1 17.645-.677c5.4 3.034 8.971 8.174 8.713 14.362-13.232 5.778-26.845 9.394-40.077 15.172-14.982-27.657-25.9-58.224-35.268-88.252-10.78-3.6-24.265-6.833-34.59-11.578-27.146-12.477-40.865-45.567-36.645-75.144s28.2-56.517 51.482-75.234c16.647 6.181 34.526 3.6 51.173 9.784-8.324 32.192-17.88 73.144-26.2 105.336 7.664 8.327 18.226 14.956 21.122 25.899z" fill="#fad6c6"/><g><path d="m218.922 316.234c-2.823-10.668-12.926-17.24-20.537-25.279a243.4 243.4 0 0 0 -69.769 4.936c6.341 12.885 16.293 23.691 29.374 29.7 10.325 4.745 23.81 7.983 34.59 11.578 7.333 23.515 15.631 47.354 26.077 69.873a82.665 82.665 0 0 0 22.256-12.921c-6.736-25.146-15.383-52.913-21.991-77.887z" fill="#333"/><path d="m198.385 290.955c-.2-.206-.4-.41-.589-.619 8.324-32.191 17.88-73.144 26.204-105.336-16.647-6.182-34.526-3.6-51.173-9.784-23.286 18.717-47.262 45.658-51.482 75.234a79.1 79.1 0 0 0 7.271 45.441 243.4 243.4 0 0 1 69.769-4.936z" fill="#739b05"/><path d="m259.212 395.89a17.259 17.259 0 0 0 -17.645.677c-.214-.809-.436-1.629-.654-2.443a82.665 82.665 0 0 1 -22.256 12.921c2.893 6.238 5.941 12.38 9.191 18.379 13.232-5.778 26.845-9.394 40.077-15.172.258-6.189-3.313-11.328-8.713-14.362z" fill="#dff1fc"/></g><g><circle cx="208" cy="112" fill="#fad6c6" r="80"/><path d="m216.263 166.236c-26.77-3.734-51.017-22.163-61.782-46.956-9.54-21.973-8.188-48.265 3.065-69.353a80 80 0 1 0 122.554 96.773c-17.184 15.17-41.084 22.709-63.837 19.536z" fill="#eaaa94"/></g><circle cx="232" cy="144" fill="#f78663" r="16"/><path d="m261.605 162.915q-.849 0-1.711-.077a17.277 17.277 0 0 1 -12.953-7.432 8 8 0 0 1 13.291-8.908 1.834 1.834 0 0 0 1.1.4 1.807 1.807 0 0 0 1.153-.2 8 8 0 1 1 11.484 11.142 17.09 17.09 0 0 1 -12.364 5.075z" fill="#f99c78"/><path d="m295 72c-25.046-4.156-51.9 8.533-65.1 30.217-5.679 9.325-9.131 20.3-17.122 27.737-11.174 10.4-27.93 11.119-43.162 12.141s-25.124 5.219-33.616 17.905c-15.365-23.322-29.594-57.052-16.823-82.645 18.044-36.161 67.943-55.287 106.394-52.041 28.513 2.407 58.335 20.31 69.429 46.686z" fill="#f98800"/><path d="m166.643 63.906c18-18.413 41.437-30.293 66.314-37.621-2.463-.433-4.929-.764-7.386-.971-38.451-3.246-88.35 15.88-106.394 52.041-12.771 25.593 1.458 59.323 16.823 82.645a48.389 48.389 0 0 1 4.556-5.832c-9.109-31.177 3.127-66.784 26.087-90.262z" fill="#c16806"/><path d="m259.194 181.86a7.982 7.982 0 0 1 -3.106-.631 201.612 201.612 0 0 1 -58-37.222 8 8 0 0 1 10.81-11.8 185.659 185.659 0 0 0 53.407 34.275 8 8 0 0 1 -3.115 15.373z" fill="#00a8e7"/><path d="m196.4 138.75a20.263 20.263 0 0 1 -15.108 31.45c.066 8.21-9.844 17.053-17.467 20.1a21.089 21.089 0 0 1 -22.636-5.02c-12.743 7.61-32.384 4.511-41.553-7.162-12 1.163-25.834-7.138-28.537-18.884s4.414-24.947 15.713-29.145c.712-8.035 9.825-14.407 17.826-15.436s16.168 2.931 21.3 9.158 7.447 14.428 7.637 22.492c5.69-.406 11.185 6.041 13.122 11.407 8.75-17.89 30.508-24.296 49.703-18.96z" fill="#fcc200"/><path d="m243.112 85.026a19.038 19.038 0 0 0 30.008 15.854c3.046 6.885 12.663 9.857 20.184 9.509a19.3 19.3 0 0 0 16.966-12.8c9.68 7.1 23.814 4 30.229-6.151s2.432-25.363-8.132-31.064c-.312-9.495-10.452-14.748-19.914-15.6s-19 6.177-20.993 15.465c-4.924-5-14.07-5.628-19.952-1.8a15.855 15.855 0 0 0 -5.895 18.534c-8.398 2.787-24.013 6.647-22.501 8.053z" fill="#fcc200"/><path d="m178.193 195.34c9.835.791 17.413 9.815 19.783 19.393s.676 19.636-1.027 29.355c7.386-11.152 15.191-22.7 26.809-29.334s28.222-6.582 36.707 3.758c6.954 8.473 5.854 22.392-2.343 29.668s-22.148 6.718-29.738-1.191c-4.36 8.014-8.792 16.128-15.07 22.748s-14.721 11.685-23.84 11.962c-15.51.472-28.565-13.209-32.732-28.156-4.472-16.043-5.557-60.374 21.451-58.203z" fill="#fad6c6"/><path d="m221.738 215.984c-10.518 6.766-17.84 17.611-24.789 28.1 1.7-9.719 3.4-19.777 1.027-29.355s-9.948-18.6-19.783-19.393c-27.008-2.171-25.923 42.162-21.451 58.2 4.167 14.947 17.222 28.628 32.732 28.156 9.119-.277 17.563-5.342 23.84-11.962s10.7-14.712 15.052-22.714a41.67 41.67 0 0 1 -6.628-31.032z" fill="#fcc200"/><rect fill="#333" height="24" rx="8" width="16" x="248" y="112"/></g></svg>