<svg height="512pt" viewBox="0 0 512 511" width="512pt" xmlns="http://www.w3.org/2000/svg"><path d="m49.550781 132.214844c-9.125 0-16.519531-7.394532-16.519531-16.515625 0-9.121094 7.394531-16.515625 16.515625-16.515625s16.515625 7.394531 16.515625 16.515625c0 9.121093-7.390625 16.515625-16.511719 16.515625zm0 0"/><path d="m74.320312 156.988281c-9.121093 0-16.515624-7.394531-16.515624-16.515625s7.394531-16.515625 16.515624-16.515625c9.121094 0 16.515626 7.394531 16.515626 16.515625.003906 9.121094-7.390626 16.515625-16.515626 16.515625zm0 0"/><path d="m16.515625 132.214844c-9.121094 0-16.515625-7.394532-16.515625-16.515625 0-9.121094 7.394531-16.515625 16.515625-16.515625s16.515625 7.394531 16.515625 16.515625c0 9.121093-7.394531 16.515625-16.515625 16.515625zm0 0"/><path d="m140.386719 190.019531h-74.324219v-33.03125c0-18.242187-14.789062-33.03125-33.03125-33.03125s-33.03125 14.789063-33.03125 33.03125v74.320313c0 18.246094 14.789062 33.035156 33.03125 33.035156h107.355469zm0 0"/><path d="m37.160156 173.503906h-8.257812c-11.402344 0-20.644532-9.242187-20.644532-20.644531s9.242188-20.648437 20.644532-20.648437h8.257812c11.402344 0 20.648438 9.246093 20.648438 20.648437s-9.246094 20.644531-20.648438 20.644531zm0 0" fill="#ebe5dd"/><path d="m462.449219 132.214844c9.125 0 16.519531-7.394532 16.519531-16.515625 0-9.121094-7.394531-16.515625-16.515625-16.515625s-16.515625 7.394531-16.515625 16.515625c0 9.121093 7.390625 16.515625 16.511719 16.515625zm0 0"/><path d="m437.675781 156.988281c9.121094 0 16.515625-7.394531 16.515625-16.515625s-7.390625-16.515625-16.511718-16.515625c-9.125 0-16.515626 7.394531-16.515626 16.515625-.003906 9.121094 7.390626 16.515625 16.511719 16.515625zm0 0"/><path d="m495.484375 132.214844c9.121094 0 16.515625-7.394532 16.515625-16.515625 0-9.121094-7.394531-16.515625-16.515625-16.515625s-16.515625 7.394531-16.515625 16.515625c0 9.121093 7.394531 16.515625 16.515625 16.515625zm0 0"/><path d="m371.613281 190.019531h74.320313v-33.03125c0-18.242187 14.789062-33.03125 33.03125-33.03125 18.246094 0 33.035156 14.789063 33.035156 33.03125v74.320313c0 18.246094-14.789062 33.035156-33.035156 33.035156h-107.351563zm0 0"/><path d="m474.835938 173.503906h8.257812c11.402344 0 20.648438-9.242187 20.648438-20.644531s-9.242188-20.648437-20.648438-20.648437h-8.257812c-11.398438 0-20.644532 9.246093-20.644532 20.648437s9.246094 20.644531 20.644532 20.644531zm0 0" fill="#ebe5dd"/><path d="m421.160156 256.085938v173.417968c0 45.582032-36.996094 82.582032-82.582031 82.582032h-165.160156c-45.585938 0-82.582031-36.996094-82.582031-82.582032v-173.417968c0-30.886719 17.011718-57.890626 42.199218-72.011719.496094-.332031 1.074219-.660157 1.570313-.910157-1.652344-5.695312-2.476563-11.726562-2.476563-17.917968v-24.773438c0-25.765625 7.925782-49.714844 21.304688-69.535156 15.855468-23.203125 39.226562-40.710938 66.640625-48.96875 11.398437-3.550781 23.453125-5.367188 35.921875-5.367188 34.191406 0 65.15625 13.871094 87.535156 36.332032 22.464844 22.382812 36.335938 53.347656 36.335938 87.539062v24.773438c0 6.191406-.824219 12.222656-2.476563 17.917968.496094.25 1.074219.578126 1.570313.910157 25.1875 14.121093 42.199218 41.125 42.199218 72.011719zm0 0" fill="#ebe5dd"/><path d="m220.078125 21.96875c-27.417969 8.257812-50.789063 25.765625-66.644531 48.96875l-.660156-.660156c-15.960938-15.960938-15.960938-41.84375 0-57.804688 15.964843-15.964844 41.84375-15.964844 57.804687 0zm0 0"/><path d="m291.921875 21.96875c27.417969 8.257812 50.785156 25.765625 66.640625 48.96875l.660156-.660156c15.964844-15.960938 15.964844-41.84375 0-57.804688-15.960937-15.964844-41.839844-15.964844-57.804687 0zm0 0"/><path d="m421.160156 256.085938v90.835937c-106.023437 42.410156-224.296875 42.410156-330.320312 0v-90.835937c0-11.738282 2.457031-22.914063 6.882812-33.035157 7.226563-16.515625 19.699219-30.222656 35.3125-38.976562 5.121094 12.46875 34.273438 72.011719 122.964844 72.011719s117.84375-59.542969 122.964844-72.011719c25.183594 14.121093 42.195312 41.125 42.195312 72.011719zm0 0"/><path d="m396.386719 512.085938h66.0625v-99.097657h-66.0625c-27.363281 0-49.546875 22.183594-49.546875 49.546875 0 27.367188 22.183594 49.550782 49.546875 49.550782zm0 0"/><path d="m115.613281 512.085938h-66.0625v-99.097657h66.0625c27.363281 0 49.546875 22.183594 49.546875 49.546875 0 27.367188-22.183594 49.550782-49.546875 49.550782zm0 0"/><path d="m462.449219 512.085938c27.367187 0 49.550781-22.183594 49.550781-49.550782v-33.03125c0-9.121094-7.394531-16.515625-16.515625-16.515625h-66.066406c-9.121094 0-16.515625 7.390625-16.515625 16.515625v33.03125c0 27.367188 22.183594 49.550782 49.546875 49.550782zm0 0"/><path d="m462.449219 412.988281c9.125 0 16.519531-7.394531 16.519531-16.515625s-7.394531-16.515625-16.515625-16.515625-16.515625 7.394531-16.515625 16.515625 7.390625 16.515625 16.511719 16.515625zm0 0"/><path d="m429.417969 412.988281c9.121093 0 16.519531-7.394531 16.519531-16.515625s-7.394531-16.515625-16.515625-16.515625c-9.125 0-16.515625 7.394531-16.515625 16.515625-.003906 9.121094 7.390625 16.515625 16.511719 16.515625zm0 0"/><path d="m495.484375 412.988281c9.121094 0 16.515625-7.394531 16.515625-16.515625s-7.394531-16.515625-16.515625-16.515625-16.515625 7.394531-16.515625 16.515625 7.394531 16.515625 16.515625 16.515625zm0 0"/><path d="m454.191406 503.824219h16.519532c18.242187 0 33.03125-14.789063 33.03125-33.03125v-33.03125c0-9.121094-7.394532-16.515625-16.515626-16.515625h-49.550781c-9.121093 0-16.515625 7.390625-16.515625 16.515625v33.03125c0 18.246093 14.789063 33.03125 33.03125 33.03125zm0 0" fill="#ebe5dd"/><path d="m272.515625 99.179688c0 9.121093 7.394531 16.519531 16.515625 16.519531s16.515625 7.394531 16.515625 16.515625 7.394531 16.515625 16.515625 16.515625 16.515625-7.394531 16.515625-16.515625c0-27.367188-22.183594-49.550782-49.546875-49.550782-9.121094 0-16.515625 7.394532-16.515625 16.515626zm0 0"/><path d="m239.484375 99.179688c0 9.121093-7.394531 16.519531-16.515625 16.519531s-16.515625 7.394531-16.515625 16.515625-7.394531 16.515625-16.515625 16.515625-16.515625-7.394531-16.515625-16.515625c0-27.367188 22.183594-49.550782 49.546875-49.550782 9.121094 0 16.515625 7.394532 16.515625 16.515626zm0 0"/><g fill="#fff"><path d="m289.03125 107.4375c-4.558594 0-8.257812-3.695312-8.257812-8.257812 0-4.558594 3.699218-8.257813 8.257812-8.257813 4.5625 0 8.257812 3.699219 8.257812 8.257813 0 4.5625-3.695312 8.257812-8.257812 8.257812zm0 0"/><path d="m222.96875 107.4375c-4.5625 0-8.257812-3.695312-8.257812-8.257812 0-4.558594 3.695312-8.257813 8.257812-8.257813 4.558594 0 8.257812 3.699219 8.257812 8.257813 0 4.5625-3.699218 8.257812-8.257812 8.257812zm0 0"/><path d="m231.226562 206.535156s0 24.773438 24.773438 24.773438 24.773438-24.773438 24.773438-24.773438 0 0-24.773438 0-24.773438 0-24.773438 0zm0 0"/></g><path d="m49.550781 512.085938c-27.367187 0-49.550781-22.183594-49.550781-49.550782v-33.03125c0-9.121094 7.394531-16.515625 16.515625-16.515625h66.066406c9.121094 0 16.515625 7.390625 16.515625 16.515625v33.03125c0 27.367188-22.183594 49.550782-49.546875 49.550782zm0 0"/><path d="m49.550781 412.988281c-9.125 0-16.519531-7.394531-16.519531-16.515625s7.394531-16.515625 16.515625-16.515625 16.515625 7.394531 16.515625 16.515625-7.390625 16.515625-16.511719 16.515625zm0 0"/><path d="m82.582031 412.988281c-9.121093 0-16.519531-7.394531-16.519531-16.515625s7.394531-16.515625 16.515625-16.515625c9.125 0 16.515625 7.394531 16.515625 16.515625.003906 9.121094-7.390625 16.515625-16.511719 16.515625zm0 0"/><path d="m16.515625 412.988281c-9.121094 0-16.515625-7.394531-16.515625-16.515625s7.394531-16.515625 16.515625-16.515625 16.515625 7.394531 16.515625 16.515625-7.394531 16.515625-16.515625 16.515625zm0 0"/><path d="m57.808594 503.824219h-16.519532c-18.242187 0-33.03125-14.789063-33.03125-33.03125v-33.03125c0-9.121094 7.394532-16.515625 16.515626-16.515625h49.550781c9.121093 0 16.515625 7.390625 16.515625 16.515625v33.03125c0 18.246093-14.789063 33.03125-33.03125 33.03125zm0 0" fill="#ebe5dd"/><path d="m256 140.472656h-8.636719c-8.914062 0-16.136719 7.222656-16.136719 16.136719 0 5.394531 2.695313 10.433594 7.183594 13.425781l8.636719 5.757813c5.421875 3.613281 12.484375 3.613281 17.902344 0l8.636719-5.757813c4.488281-2.992187 7.1875-8.03125 7.1875-13.425781 0-8.914063-7.226563-16.136719-16.140626-16.136719zm0 0"/><path d="m297.289062 181.761719c-2.191406 0-4.289062.871093-5.839843 2.421875-7.664063 7.664062-17.230469 12.21875-27.191407 13.871094v-24.550782h-16.515624v24.550782c-9.960938-1.652344-19.527344-6.207032-27.195313-13.871094-1.546875-1.550782-3.644531-2.421875-5.839844-2.421875h-8.257812v16.515625h4.96875c12.257812 11.058594 27.953125 17.105468 44.582031 17.105468s32.320312-6.046874 44.578125-17.105468h4.96875v-16.515625zm0 0"/><path d="m280.773438 156.988281c0 4.558594-3.695313 8.257813-8.257813 8.257813s-8.257813-3.699219-8.257813-8.257813c0-4.5625 3.695313-8.257812 8.257813-8.257812s8.257813 3.695312 8.257813 8.257812zm0 0" fill="#fff"/></svg>