<svg height="512pt" viewBox="0 0 512.00021 512" width="512pt" xmlns="http://www.w3.org/2000/svg"><path d="m437.660156 429.402344v82.578125h-41.289062l-16.515625-16.515625h-247.730469l-16.515625 16.515625h-41.289063v-82.578125l1.816407-8.257813 25.433593-114.535156c1.898438-8.671875 7.101563-15.855469 14.121094-20.480469.082032 0 .164063-.082031.164063-.082031 5.285156-3.304687 11.394531-5.285156 18.003906-5.285156h244.261719c6.605468 0 12.71875 1.980469 18 5.285156 0 0 .085937.082031.167968.082031 7.019532 4.625 12.21875 11.808594 14.121094 20.480469l16.101563 72.667969 3.796875 17.011718 5.535156 24.855469zm0 0" fill="#fd808f"/><path d="m388.113281 132.125c18.242188 0 33.03125 14.789062 33.03125 33.03125v82.578125c0 18.242187-14.789062 33.027344-33.03125 33.027344h-74.320312l-57.804688 41.289062-57.800781-41.289062h-74.320312c-18.242188 0-33.03125-14.785157-33.03125-33.027344v-82.578125c0-18.242188 14.789062-33.03125 33.03125-33.03125v-33.03125l-33.03125-33.03125 66.0625-66.0625 41.289062 41.289062h115.605469l41.289062-41.289062 66.0625 66.0625-33.03125 33.03125zm0 0" fill="#fea9ae"/><path d="m214.703125 115.609375c0 13.679687-11.09375 24.773437-24.773437 24.773437-13.683594 0-24.773438-11.09375-24.773438-24.773437 0-13.683594 11.089844-24.773437 24.773438-24.773437 13.679687 0 24.773437 11.089843 24.773437 24.773437zm0 0" fill="#fff"/><path d="m206.445312 123.867188c0 9.121093-7.394531 16.515624-16.515624 16.515624-9.121094 0-16.515626-7.394531-16.515626-16.515624 0-9.121094 7.394532-16.515626 16.515626-16.515626 9.121093 0 16.515624 7.394532 16.515624 16.515626zm0 0" fill="#493c35"/><path d="m189.929688 115.609375c0 4.558594-3.699219 8.257813-8.257813 8.257813-4.5625 0-8.257813-3.699219-8.257813-8.257813 0-4.5625 3.695313-8.257813 8.257813-8.257813 4.558594 0 8.257813 3.695313 8.257813 8.257813zm0 0" fill="#fff"/><path d="m198.1875 136.253906c0 2.277344-1.851562 4.128906-4.128906 4.128906-2.28125 0-4.128906-1.851562-4.128906-4.128906 0-2.28125 1.847656-4.128906 4.128906-4.128906 2.277344 0 4.128906 1.847656 4.128906 4.128906zm0 0" fill="#fff"/><path d="m346.824219 115.609375c0 13.679687-11.089844 24.773437-24.773438 24.773437-13.679687 0-24.773437-11.09375-24.773437-24.773437 0-13.683594 11.09375-24.773437 24.773437-24.773437 13.683594 0 24.773438 11.089843 24.773438 24.773437zm0 0" fill="#fff"/><path d="m338.566406 123.867188c0 9.121093-7.394531 16.515624-16.515625 16.515624-9.121093 0-16.515625-7.394531-16.515625-16.515624 0-9.121094 7.394532-16.515626 16.515625-16.515626 9.121094 0 16.515625 7.394532 16.515625 16.515626zm0 0" fill="#493c35"/><path d="m322.050781 115.609375c0 4.558594-3.695312 8.257813-8.257812 8.257813-4.558594 0-8.257813-3.699219-8.257813-8.257813 0-4.5625 3.699219-8.257813 8.257813-8.257813 4.5625 0 8.257812 3.695313 8.257812 8.257813zm0 0" fill="#fff"/><path d="m330.308594 136.253906c0 2.277344-1.847656 4.128906-4.128906 4.128906s-4.128907-1.851562-4.128907-4.128906c0-2.28125 1.847657-4.128906 4.128907-4.128906s4.128906 1.847656 4.128906 4.128906zm0 0" fill="#fff"/><g fill="#fea9ae"><path d="m511.980469 429.402344-24.773438 41.289062 24.773438 41.289063h-74.320313v-82.578125zm0 0"/><path d="m289.019531 511.980469v-82.578125h82.578125v82.578125l-41.289062-16.515625zm0 0"/><path d="m140.382812 511.980469v-82.578125h82.578126v82.578125l-41.289063-16.515625zm0 0"/></g><path d="m509.585938 357.476562c-3.222657-3.21875-8.507813-3.21875-11.726563 0-5.863281 5.945313-15.441406 5.945313-21.304687 0l-2.476563-2.394531 6.605469-6.523437c9.992187-10.074219 9.992187-26.425782 0-36.496094-9.746094-9.746094-26.757813-9.746094-36.5 0-9.992188 10.074219-9.992188 26.421875 0 36.496094l6.605468 6.523437-24.277343 24.195313-2.972657 2.972656c-3.21875 3.222656-3.21875 8.507812 0 11.726562 1.652344 1.570313 3.714844 2.394532 5.863282 2.394532.328125 0 .660156 0 .910156-.082032 1.816406-.164062 3.550781-.992187 4.953125-2.3125l27.167969-27.25 2.394531 2.476563c12.386719 12.304687 32.371094 12.304687 44.757813 0 3.21875-3.21875 3.21875-8.503906 0-11.726563zm-40.628907-20.644531-6.523437 6.605469-6.523438-6.605469c-3.632812-3.550781-3.632812-9.496093 0-13.046875 1.734375-1.734375 4.046875-2.722656 6.523438-2.722656 2.476562 0 4.789062.988281 6.523437 2.722656 3.632813 3.550782 3.632813 9.496094 0 13.046875zm0 0" fill="#f57182"/><path d="m355.082031 0 66.0625 66.0625-82.578125 16.515625zm0 0" fill="#feccd0"/><path d="m156.898438 0-66.0625 66.0625 82.578124 16.515625zm0 0" fill="#feccd0"/><path d="m338.566406 247.734375h-165.152344v-66.0625c0-27.363281 22.179688-49.546875 49.546876-49.546875h66.058593c27.363281 0 49.546875 22.179688 49.546875 49.546875zm0 0" fill="#feccd0"/><path d="m222.960938 264.246094 33.027343 24.773437 33.03125-24.773437v-16.511719h-66.058593zm0 0" fill="#ff5054"/><path d="m222.960938 214.703125c-9.121094 0-16.519532-7.394531-16.519532-16.515625v-16.515625c0-9.121094 7.394532-16.515625 16.515625-16.515625 9.121094 0 16.515625 7.394531 16.515625 16.515625v16.515625c0 9.121094-7.390625 16.515625-16.511718 16.515625zm0 0" fill="#f8969f"/><path d="m289.019531 214.703125c-9.121093 0-16.515625-7.394531-16.515625-16.515625v-16.515625c0-9.121094 7.394532-16.515625 16.515625-16.515625 9.121094 0 16.515625 7.394531 16.515625 16.515625v16.515625c0 9.121094-7.394531 16.515625-16.515625 16.515625zm0 0" fill="#f8969f"/><path d="m400.164062 300.863281-28.566406 128.539063h-82.578125v-33.03125l-33.03125 8.257812-33.03125-8.257812v33.03125h-82.578125l-28.5625-128.539063c-2.292968-10.316406 5.554688-20.101562 16.121094-20.101562h70.246094l57.804687 41.289062 57.804688-41.289062h70.246093c10.566407 0 18.414063 9.785156 16.125 20.101562zm0 0" fill="#fe919a"/><path d="m74.320312 429.402344v82.578125h-74.320312l24.773438-41.289063-24.773438-41.289062zm0 0" fill="#fea9ae"/><path d="m115.609375 429.402344c0 4.542968-3.71875 8.257812-8.257813 8.257812h-33.03125v-8.257812l1.816407-8.257813h31.214843c4.539063 0 8.257813 3.714844 8.257813 8.257813zm0 0" fill="#f57182"/><path d="m396.371094 429.402344c0 4.542968 3.714844 8.257812 8.257812 8.257812h33.03125v-8.257812l-1.816406-8.257813h-31.214844c-4.542968 0-8.257812 3.714844-8.257812 8.257813zm0 0" fill="#f57182"/><path d="m156.898438 173.414062c0 13.679688-11.09375 24.773438-24.773438 24.773438-13.683594 0-24.773438-11.09375-24.773438-24.773438 0-13.683593 11.089844-24.773437 24.773438-24.773437 13.679688 0 24.773438 11.089844 24.773438 24.773437zm0 0" fill="#fa4c52"/><path d="m404.628906 173.414062c0 13.679688-11.089844 24.773438-24.773437 24.773438-13.679688 0-24.773438-11.09375-24.773438-24.773438 0-13.683593 11.09375-24.773437 24.773438-24.773437 13.683593 0 24.773437 11.089844 24.773437 24.773437zm0 0" fill="#fa4c52"/></svg>