<?xml version="1.0" encoding="iso-8859-1"?>
<!-- Generator: Adobe Illustrator 19.0.0, SVG Export Plug-In . SVG Version: 6.00 Build 0)  -->
<svg version="1.1" id="Layer_1" xmlns="http://www.w3.org/2000/svg" xmlns:xlink="http://www.w3.org/1999/xlink" x="0px" y="0px"
	 viewBox="0 0 506.051 506.051" style="enable-background:new 0 0 506.051 506.051;" xml:space="preserve">
<g>
	<path style="fill:#EFDC81;" d="M70.826,292.451c4.8-4.8,7.6-11.6,7.6-18c0-6.8-2.8-13.2-7.6-18c-4.8-4.8-11.2-7.6-18-7.6
		s-13.2,2.8-18,7.6c-4.8,4.8-7.6,11.2-7.6,18s2.8,13.6,7.6,18c4.8,4.8,11.6,7.6,18,7.6S66.026,297.251,70.826,292.451z"/>
	<path style="fill:#EFDC81;" d="M100.426,359.651c-4.4-8-13.2-13.2-22.4-13.2c-4.4,0-8.8,1.2-12.4,3.2c-12.4,6.8-16.8,22.8-10,34.8
		c9.2,16,20,31.2,32.8,44.8c4.8,5.2,11.6,8,18.8,8c6.4,0,12.8-2.4,17.6-7.2c4.8-4.8,8-11.2,8-18c0.4-6.8-2.4-13.2-7.2-18.4
		C116.026,383.651,107.626,372.051,100.426,359.651z"/>
</g>
<path style="fill:#F0C960;" d="M324.026,435.651c-3.2,0-6,0.4-9.2,1.6c-20,7.6-40.8,11.6-62.4,11.6c-14.8,0-29.6-2-43.6-5.6
	c-1.2-0.4-2.4-0.8-3.6-0.8c-2.4-0.8-4.8-0.8-6.8-0.8c-11.6,0-21.6,7.6-24.8,18.8c-4,13.6,4,28,17.6,31.6c1.6,0.4,3.2,0.8,4.4,1.2
	c18.4,4.8,37.2,7.2,56.4,7.2c27.6,0,54.8-4.8,80.4-14.8c6.4-2.4,11.6-7.2,14.4-13.6c2.8-6.4,3.2-13.2,0.4-19.6
	C344.426,442.451,334.826,435.651,324.026,435.651z"/>
<path style="fill:#FFC52F;" d="M318.026,57.651c-0.4-0.8-0.4-2,0.8-2.8l2-1.2c6-3.6,10-9.2,11.2-16c1.6-6.8,0.4-13.6-3.2-19.2
	c-3.6-6-9.2-10-16-11.2c-6.8-1.6-13.6-0.4-19.2,3.2l-58,36.8c-6,3.6-10,9.2-11.2,16c-1.6,6.8-0.4,13.6,3.2,19.2l36.8,58
	c4.8,7.6,12.8,12,21.6,12c4.8,0,9.6-1.2,13.6-4c6-3.6,10-9.2,11.2-16c1.6-6.8,0.4-13.6-3.2-19.2l-0.4-0.4c-0.4-0.8-0.4-1.6,0-2.4
	c0.4-1.2,1.6-1.2,2-1.2c70.4,24.4,118,90.4,118,165.2c0,39.2-12.8,76.4-36.8,107.2c-8.8,11.2-6.8,27.2,4.4,36c4.4,3.6,10,5.6,16,5.6
	c8,0,15.2-3.6,20.4-10c31.2-40,48-88,48-139.2c0-77.6-39.2-148.8-104.8-190.8c-1.6,0-1.6-1.2-1.2-2l-51.2-23.6l-1.2,0.8
	C320.026,58.851,318.826,58.451,318.026,57.651z"/>
<path d="M52.426,306.051c-8.4,0-16.4-3.2-22.4-9.2s-9.2-14-9.2-22.4s3.2-16.4,9.2-22.4c6-6,14-9.2,22.4-9.2s16.4,3.2,22.4,9.2
	c6,6,9.2,14,9.2,22.4s-3.2,16.4-9.2,22.4C69.626,302.451,61.226,306.051,52.426,306.051z M52.426,250.851c-6.4,0-12.4,2.4-16.8,6.8
	c-4.4,4.4-6.8,10.4-6.8,16.8s2.4,12.4,6.8,16.8s10.4,6.8,16.8,6.8c6.4,0,12.8-2.4,16.8-6.8l0,0c4.4-4.4,6.8-10.4,6.8-16.8
	s-2.4-12.4-6.8-16.8C64.826,253.251,58.826,250.851,52.426,250.851z"/>
<path d="M106.826,443.651c-8,0-16.4-3.6-22.8-10c-13.2-14-24.4-29.6-34-46c-8.4-15.2-2.8-34.4,12.4-43.2
	c15.2-8.4,34.4-2.8,43.2,12.4c7.6,12.4,15.6,23.6,24.8,33.2c12,12.8,11.2,33.2-1.6,44.8
	C122.826,440.851,115.226,443.651,106.826,443.651z M77.626,348.851c-4,0-7.6,0.8-11.2,2.8c-11.2,6.4-15.2,20.8-9.2,32
	c8.8,16,20,30.8,32.4,44.4c4.8,4.8,11.2,7.6,17.2,7.6s12-2.4,16.4-6.4c9.6-8.8,10-24,0.8-33.6c-9.2-10-18-21.6-25.6-34.8l0,0
	C94.026,353.251,86.026,348.851,77.626,348.851z"/>
<path d="M252.826,506.051c-19.6,0-39.2-2.4-58-7.2c-1.2-0.4-2.8-0.8-4-1.2c-8.4-2.4-15.2-7.6-19.2-14.8c-4-7.2-5.2-16-2.8-24
	c4.4-16.8,22-26.8,38.8-22c0.4,0,0.4,0,0.8,0.4h0.4c0.8,0,1.6,0.4,2,0.4c14,3.6,28,5.2,42,5.2c21.2,0,41.6-3.6,60-10.8
	c7.6-3.2,16-2.8,23.6,0.4c8,3.6,14,9.6,17.2,18c3.2,7.6,2.8,16-0.4,23.6c-3.6,8-9.6,14-18,17.2
	C308.426,500.851,280.426,506.051,252.826,506.051z M199.226,443.651c-10.4,0-20,6.8-22.8,17.2c-1.6,6-0.8,12.4,2,18
	c3.2,5.6,8,9.2,14.4,11.2c1.6,0.4,3.2,0.8,4.8,1.2c17.6,4.8,36.4,6.8,55.6,6.8c26.8,0,53.6-4.8,80-14.4c6-2.4,10.8-6.8,13.2-12.8
	c2.4-5.6,2.4-12,0.4-17.6c-2.4-6-6.8-10.8-12.8-13.6c-5.6-2.4-12-2.4-17.6-0.4l0,0c-19.6,7.6-40.8,11.6-63.2,11.6
	c-14.4,0-29.6-2-44-5.6c-0.8,0-0.8-0.4-1.2-0.4c-0.8,0-1.6-0.4-2.4-0.4C203.226,443.651,201.226,443.651,199.226,443.651z"/>
<path d="M410.826,429.251c-7.2,0-14-2.4-19.6-6.8c-6.8-5.2-11.2-12.8-12-21.2c-1.2-8.4,1.2-16.8,6.4-23.2
	c23.2-30,35.6-65.6,35.6-103.6c0-68.8-41.6-130-104.4-156c1.2,4.8,1.2,10,0,14.8c-2,8.4-6.8,15.2-14,19.6
	c-5.2,3.2-10.4,5.2-16.8,5.2c-11.2,0-21.2-5.6-27.2-14.8l-36.8-58c-4.4-6.8-6-15.6-4-24c2-8,6.8-15.2,14-19.6l58-36.8
	c7.2-4.4,15.6-6,24-4s15.2,6.8,19.6,14c4.4,7.2,6,15.6,4,24s-6.8,15.2-14,19.6l-2,1.2c-2,1.2-4.4,0.4-5.6-1.2
	c-1.2-2-0.4-4.4,1.2-5.6l2-1.2c10.8-6.8,14.4-21.6,7.6-32.4c-3.2-5.2-8.4-8.8-14.8-10.4c-6-1.6-12.4-0.4-17.6,2.8l-58,36.8
	c-5.6,3.6-9.2,8.4-10.8,14.8c-1.2,6.4-0.4,12.8,3.2,17.6l36.8,58c4.4,6.8,12,10.8,20.4,10.8c4.8,0,8.8-1.2,12.4-3.6
	c5.2-3.2,9.2-8.4,10.4-14.8c1.2-6,0.4-11.6-2.4-16.8c-1.6-1.2-2.4-3.2-1.6-4.8c0.8-2,3.2-2.8,4.8-2.4
	c71.2,24.4,119.2,91.6,119.2,166.8c0,39.6-12.8,77.2-37.2,108.4c-4,4.8-5.6,11.2-4.8,17.2c0.8,6.4,4,12,8.8,16
	c4.4,3.2,9.6,5.2,14.8,5.2c7.6,0,14-3.2,18.8-9.2c31.2-39.6,47.6-87.6,47.6-138c0-76.8-38.8-147.6-103.6-189.2
	c-2-1.2-2.4-3.6-1.2-5.6s3.6-2.4,5.6-1.2c67.2,43.2,107.6,116,107.6,195.6c0,52.4-17.2,101.6-49.2,142.8
	C429.626,424.851,420.826,429.251,410.826,429.251z"/>
<g>
</g>
<g>
</g>
<g>
</g>
<g>
</g>
<g>
</g>
<g>
</g>
<g>
</g>
<g>
</g>
<g>
</g>
<g>
</g>
<g>
</g>
<g>
</g>
<g>
</g>
<g>
</g>
<g>
</g>
</svg>
