<svg height="512" viewBox="0 0 512 512" width="512" xmlns="http://www.w3.org/2000/svg"><g><path d="m288 256 38.675 38.675a13.188 13.188 0 0 0 18.65 0l37.69-37.69a12.707 12.707 0 0 0 0-17.97 12.706 12.706 0 0 0 -15.522-1.911l-31.493 18.896-24-24z" fill="#eaaa94"/><path d="m200 328-40 32-76 16 52 56a36.612 36.612 0 0 0 8.845-37.466l-.845-2.534 40-8 56-40z" fill="#253849"/><path d="m264 224-64 72v32l48 32-32 64h80a33.3 33.3 0 0 0 -22.768-31.589l-1.232-.411 24-40-16-16-32-24 72-72z" fill="#35495e"/><g><circle cx="208" cy="472" fill="#fcee21" r="16"/><path d="m208 496a24 24 0 1 1 24-24 24.028 24.028 0 0 1 -24 24zm0-32a8 8 0 1 0 8 8 8.009 8.009 0 0 0 -8-8z"/></g><g><circle cx="240" cy="472" fill="#fcee21" r="16"/><path d="m240 496a24 24 0 1 1 24-24 24.028 24.028 0 0 1 -24 24zm0-32a8 8 0 1 0 8 8 8.009 8.009 0 0 0 -8-8z"/></g><g><circle cx="272" cy="472" fill="#fcee21" r="16"/><path d="m272 496a24 24 0 1 1 24-24 24.028 24.028 0 0 1 -24 24zm0-32a8 8 0 1 0 8 8 8.009 8.009 0 0 0 -8-8z"/></g><g><circle cx="304" cy="472" fill="#fcee21" r="16"/><path d="m304 496a24 24 0 1 1 24-24 24.028 24.028 0 0 1 -24 24zm0-32a8 8 0 1 0 8 8 8.009 8.009 0 0 0 -8-8z"/></g><path d="m192 456 24-32h80l24 32z" fill="#dae3e8"/><g><circle cx="44.118" cy="404.118" fill="#fcee21" r="16"/><path d="m44.117 428.106a23.989 23.989 0 1 1 16.972-7.018 23.927 23.927 0 0 1 -16.972 7.018zm.001-31.985a8 8 0 1 0 5.656 2.339 7.978 7.978 0 0 0 -5.656-2.339z"/></g><g><circle cx="66.745" cy="426.745" fill="#fcee21" r="16"/><path d="m66.745 450.745a24 24 0 1 1 16.971-7.03 23.841 23.841 0 0 1 -16.971 7.03zm0-32a8 8 0 1 0 5.655 13.655 8 8 0 0 0 -5.657-13.656z"/></g><g><circle cx="89.373" cy="449.373" fill="#fcee21" r="16"/><path d="m89.373 473.361a23.989 23.989 0 1 1 16.971-7.018 23.931 23.931 0 0 1 -16.971 7.018zm0-31.985a8 8 0 1 0 5.656 2.339 7.977 7.977 0 0 0 -5.656-2.339z"/></g><g><circle cx="112" cy="472" fill="#fcee21" r="16"/><path d="m112 496a24 24 0 1 1 16.971-7.03 23.841 23.841 0 0 1 -16.971 7.03zm0-32a8 8 0 1 0 5.656 13.657 8 8 0 0 0 -5.656-13.657z"/></g><path d="m44.118 381.49 39.598-5.657 56.568 56.569-5.657 39.598z" fill="#dae3e8"/><path d="m84 376 52 56a36.612 36.612 0 0 0 8.845-37.466l-.845-2.534 11.927-2.385q-2.49-13.856-4.981-27.709z" fill="#f48da1"/><g fill="#f48da1"><path d="m319.679 240.08c-2.061-8.363-5.194-16.625-7.679-24.08h-40l-8 8-64 72 48 16c5.035 1.668 13.558-11.458 16.034-14.516 3.589-4.431 3.964-6.155 9.691-4.882 6.317 1.4 12.474 1.771 18.777-.033 24.142-6.91 32.776-29.779 27.177-52.489z"/><path d="m244.161 367.678-28.161 56.322h80a33.3 33.3 0 0 0 -22.768-31.589l-1.232-.411 6.444-10.74c-7.802-12.208-22.444-15.052-34.283-13.582z"/></g><path d="m258.812 224h-55.983a13.188 13.188 0 0 0 -12.394 17.7l20.965 57.64a13.842 13.842 0 0 0 17.384 8.4 13.842 13.842 0 0 0 9.276-15.406l-6.06-36.334 29.4-5.88a13.188 13.188 0 0 0 10.6-12.932 13.189 13.189 0 0 0 -13.188-13.188z" fill="#fad6c6"/><circle cx="312" cy="128" fill="#fad6c6" r="104"/><circle cx="344" cy="144" fill="#f78663" r="16"/><path d="m291.814 199.864a163.245 163.245 0 0 1 -46.809-27.2 58.267 58.267 0 0 1 -10.221-1.119 89.8 89.8 0 0 1 -20.133-6.892 104.013 104.013 0 0 0 164.643 42.633 164.87 164.87 0 0 1 -87.48-7.422z" fill="#eaaa94"/><path d="m352.846 230.246a7.981 7.981 0 0 1 -4.237-1.216l-1.318-.825a7.973 7.973 0 0 1 -3.479-4.7c-25.168-34.612-38.6-76.476-47.533-109.409a8 8 0 1 1 15.442-4.19c8.863 32.675 22.27 74.421 47.49 107.49a8 8 0 0 1 -6.365 12.851z" fill="#f249b4"/><path d="m328.005 193c-.1 0-.2 0-.3-.006a203.492 203.492 0 0 1 -74.937-17.678 8 8 0 1 1 6.472-14.632 187.577 187.577 0 0 0 69.06 16.322 8 8 0 0 1 -.295 15.994z" fill="#f249b4"/><path d="m204.685 160.686c-17.026 21.319-52.4 24.49-72.95 6.539-9.513-8.311-15.607-19.871-24.528-28.816a62.851 62.851 0 0 0 -44.18-18.246 62.85 62.85 0 0 0 -44.053 18.553c10-4.422 21.859 2.139 28.135 11.091s8.857 19.915 13.556 29.786a75.016 75.016 0 0 0 95.935 37.269c15.659-6.353 43.4-24.862 67.4-48.862l-8-24z" fill="#5b0b3c"/><path d="m384 136a8 8 0 0 1 -8-8v-8a8 8 0 0 1 16 0v8a8 8 0 0 1 -8 8z" fill="#5b0b3c"/><path d="m395.157 178.539c-11.315 0-22.641-5.83-28.683-15.515a8 8 0 1 1 13.576-8.468 17.884 17.884 0 0 0 19.626 7.327 8 8 0 1 1 4.707 15.291 31.331 31.331 0 0 1 -9.226 1.365z" fill="#f99c78"/><path d="m216 144-7.121 10.5c-9.12 19.855-27.241 35.632-48.474 41.078-26.522 6.8-56.557-2.847-74.154-23.826-7.151-8.53-12.392-18.723-20.692-26.152-11.8-10.55-29.412-13.9-44.39-9.008q-1.123 1.03-2.194 2.119c10-4.423 21.858 2.139 28.134 11.091s8.857 19.915 13.556 29.786a75.016 75.016 0 0 0 95.935 37.274c15.659-6.353 43.4-24.862 67.4-48.862z" fill="#3f062c"/><path d="m424 144h-8a8 8 0 0 1 0-16h8a8 8 0 0 1 0 16z" fill="#fad6c6"/><g><path d="m231.677 93.506c8.712-25.9 28.98-46.969 52.973-60.041 10.49-5.715 24.053-8.007 38.277-8.878a103.9 103.9 0 0 0 -114.927 103.413c0 .412.011.821.016 1.232a163.678 163.678 0 0 0 36.021 42.613c-17.117-20.666-20.913-52.918-12.36-78.339z" fill="#f45b7f"/><path d="m322.927 24.587c-14.224.871-27.787 3.163-38.277 8.878-23.993 13.072-44.261 34.144-52.973 60.041-8.553 25.421-4.757 57.673 12.36 78.339.323.273.642.55.968.82 11.412.244 22.891-2.953 31-10.792 10.879-10.519 13.577-26.762 21.275-39.791 12.521-21.195 37.755-32.269 62.31-34.029 16.926-1.213 33.758 1.332 50.4 5.027a104.083 104.083 0 0 0 -87.063-68.493z" fill="#f48da1"/></g><path d="m245.005 172.665a163.771 163.771 0 0 1 -36.989-43.433 103.677 103.677 0 0 0 6.635 35.422 89.8 89.8 0 0 0 20.133 6.892 58.267 58.267 0 0 0 10.221 1.119z" fill="#f45b7f"/><g><path d="m356.958 100.76c-14.437 9.348-28.094 21.4-45.059 24.228-15.868 2.641-32.791-4.275-42.782-16.78 8.345 19.471 30.2 32.3 51.281 29.917 32.218-3.643 53.845-36.895 84.857-45.545-15.121-8.043-33.902-1.141-48.297 8.18z" fill="#3f062c"/><path d="m322.079 93.206c-8.745 4.27-16.862 9.842-25.933 13.367s-18.8 5.064-27.461.62c.137.342.288.677.432 1.015 9.991 12.5 26.914 19.421 42.782 16.78 16.965-2.825 30.622-14.88 45.059-24.228 14.395-9.321 33.176-16.223 48.3-8.18 1.065-.3 2.14-.57 3.229-.807-26.367-12.173-60.314-11.309-86.408 1.433z" fill="#5b0b3c"/></g><g><path d="m417.091 73.482c-1.221-5.963-5.3-11.076-10.311-14.53s-10.911-5.405-16.847-6.754a98.8 98.8 0 0 0 -69.462 10.132 110.559 110.559 0 0 1 70.047 14.27c7.444 4.4 16.28 9.87 24.043 6.059a12.167 12.167 0 0 0 2.5-1.643 18.775 18.775 0 0 0 .03-7.534z" fill="#5b0b3c"/><path d="m390.518 76.6a110.559 110.559 0 0 0 -70.047-14.27c-1.219.684-2.425 1.389-3.612 2.127 11.826-4.777 25.16-2.04 36.483 3.829 14.319 7.421 23.419 21.449 38.582 26.943a18.966 18.966 0 0 0 25.136-14.217 12.167 12.167 0 0 1 -2.5 1.643c-7.76 3.811-16.598-1.655-24.042-6.055z" fill="#3f062c"/></g></g></svg>