<svg height="464pt" viewBox="0 0 464 464" width="464pt" xmlns="http://www.w3.org/2000/svg"><path d="m368 200c0 7.441406-1.039062 14.640625-2.960938 21.519531-3.839843 13.679688-11.199218 25.921875-21.039062 35.601563-12.640625 12.398437-29.359375 20.636718-48 22.398437-2.640625.320313-5.28125.480469-8 .480469-8.398438 0-16.480469-1.28125-24-3.679688-16.160156-5.039062-30.082031-15.121093-40-28.402343-5.359375-7.117188-9.519531-15.117188-12.242188-23.757813-7.597656 9.199219-17.039062 16.800782-27.757812 22.238282-12 6.160156-25.601562 9.601562-40 9.601562-2.71875 0-5.359375-.160156-8-.398438-11.441406-.960937-22.242188-4.242187-32-9.203124-8.480469-4.316407-16.160156-10-22.800781-16.71875-15.597657-15.839844-25.199219-37.679688-25.199219-61.679688s9.601562-45.839844 25.199219-61.679688c13.042969-13.28125 30.160156-22.402343 49.359375-25.28125 10.480468-46.398437 51.921875-81.039062 101.441406-81.039062 45.679688 0 84.398438 29.441406 98.398438 70.320312 3.601562 10.558594 5.601562 21.917969 5.601562 33.679688 0 10.082031-1.441406 19.839844-4.160156 29.121094 3.601562 2.320312 7.039062 4.957031 10.160156 7.917968.800781.71875 1.519531 1.441407 2.320312 2.242188 14.640626 14.476562 23.679688 34.476562 23.679688 56.71875zm0 0" fill="#6dc82a"/><path d="m56 168c0 24 9.601562 45.839844 25.199219 61.679688-5.441407 1.519531-11.199219 2.320312-17.199219 2.320312-11.679688 0-22.640625-3.121094-32-8.640625-19.121094-10.960937-32-31.679687-32-55.359375 0-35.359375 28.640625-64 64-64 6 0 11.757812.800781 17.199219 2.320312-15.597657 15.839844-25.199219 37.679688-25.199219 61.679688zm0 0" fill="#47821b"/><path d="m464 168c0 20.238281-9.359375 38.238281-24 49.917969-8.960938 7.203125-20 12.082031-32 13.601562-2.640625.320313-5.28125.480469-8 .480469-8.480469 0-16.640625-1.679688-24-4.71875-3.839844-1.523438-7.519531-3.523438-10.960938-5.761719 1.921876-6.878906 2.960938-14.078125 2.960938-21.519531 0-22.242188-9.039062-42.242188-23.679688-56.71875-.800781-.800781-1.519531-1.523438-2.320312-2.242188 2.320312-5.121093 5.441406-9.917968 9.121094-14.238281 10-12 24.480468-20.242187 40.878906-22.320312 2.640625-.320313 5.28125-.480469 8-.480469 8.398438 0 16.320312 1.601562 23.679688 4.558594 23.601562 9.359375 40.320312 32.480468 40.320312 59.441406zm0 0" fill="#5eac24"/><path d="m392 104v.480469c-16.398438 2.078125-30.878906 10.320312-40.878906 22.320312-3.679688 4.320313-6.800782 9.117188-9.121094 14.238281-3.121094-2.957031-6.558594-5.597656-10.160156-7.917968 2.71875-9.28125 4.160156-19.039063 4.160156-29.121094 0-11.761719-2-23.121094-5.601562-33.679688 6.242187-4 13.683593-6.320312 21.601562-6.320312 22.082031 0 40 17.917969 40 40zm0 0" fill="#47821b"/><path d="m464 432v32h-464v-32s79.519531-19.839844 168-28.320312c23.839844-2.238282 48.242188-3.679688 72-3.679688 18.878906 0 37.679688.878906 56 2.398438 90.558594 7.441406 168 29.601562 168 29.601562zm0 0" fill="#a38563"/><path d="m130.78125 80c10.835938-45.867188 52.042969-80 101.21875-80 57.4375 0 104 46.5625 104 104" fill="#6dc82a"/><path d="m191.992188 102.234375c-1.496094 0-3.011719-.421875-4.359376-1.296875-15.035156-9.796875-33.300781-14.171875-50.925781-12.609375-4.371093.4375-8.28125-2.859375-8.675781-7.257813-.390625-4.40625 2.859375-8.289062 7.261719-8.679687 21.125-1.90625 43.042969 3.390625 61.074219 15.140625 3.703124 2.414062 4.746093 7.367188 2.335937 11.070312-1.535156 2.351563-4.097656 3.632813-6.710937 3.632813zm0 0" fill="#5eac24"/><path d="m208 208c-4.417969 0-8-3.578125-8-8 0-12.234375 2.464844-24.078125 7.324219-35.203125 1.773437-4.054687 6.488281-5.914063 10.535156-4.125 4.050781 1.765625 5.898437 6.484375 4.128906 10.53125-3.972656 9.09375-5.988281 18.78125-5.988281 28.796875 0 4.421875-3.582031 8-8 8zm0 0" fill="#5eac24"/><path d="m344 150.867188c-2.019531 0-4.042969-.757813-5.601562-2.289063-8.097657-7.9375-18.054688-13.914063-28.792969-17.28125-4.214844-1.320313-6.5625-5.8125-5.238281-10.023437 1.320312-4.21875 5.804687-6.5625 10.027343-5.242188 13.136719 4.117188 25.3125 11.421875 35.207031 21.125 3.152344 3.09375 3.203126 8.15625.113282 11.3125-1.570313 1.59375-3.640625 2.398438-5.714844 2.398438zm0 0" fill="#47821b"/><path d="m376 227.28125v68.71875c0 26.480469-21.519531 48-48 48h-32v58.398438c-18.320312-1.519532-37.121094-2.398438-56-2.398438-23.757812 0-48.160156 1.441406-72 3.679688v-67.679688h-16c-26.480469 0-48-21.519531-48-48v-41.601562c9.757812 4.960937 20.558594 8.242187 32 9.203124v32.398438c0 8.800781 7.199219 16 16 16h16c8.800781 0 16-7.199219 16-16v-41.601562c10.71875-5.4375 20.160156-13.039063 27.757812-22.238282 2.722657 8.640625 6.882813 16.640625 12.242188 23.757813v36.082031c0 5.519531 2.242188 10.558594 5.839844 14.160156 3.601562 3.597656 8.640625 5.839844 14.160156 5.839844 11.039062 0 20-8.960938 20-20v-7.679688c7.519531 2.398438 15.601562 3.679688 24 3.679688 2.71875 0 5.359375-.160156 8-.480469v16.480469c0 8.800781 7.199219 16 16 16h16c8.800781 0 16-7.199219 16-16v-38.878906c9.839844-9.679688 17.199219-21.921875 21.039062-35.601563 3.441407 2.238281 7.121094 4.238281 10.960938 5.761719zm0 0" fill="#884d00"/><path d="m104 272v32h-24c-26.480469 0-48-21.519531-48-48v-32.640625c9.359375 5.519531 20.320312 8.640625 32 8.640625v24c0 8.800781 7.199219 16 16 16zm0 0" fill="#693b00"/><path d="m440 217.917969v38.082031c0 26.480469-21.519531 48-48 48h-16v-32h16c8.800781 0 16-7.199219 16-16v-24.480469c12-1.519531 23.039062-6.398437 32-13.601562zm0 0" fill="#693b00"/><g fill="#fff"><path d="m271.996094 154.320312c-3.449219 0-6.632813-2.242187-7.664063-5.71875-1.257812-4.234374 1.152344-8.6875 5.386719-9.953124 5.917969-1.757813 12.070312-2.648438 18.28125-2.648438 4.417969 0 8 3.578125 8 8s-3.582031 8-8 8c-4.667969 0-9.28125.671875-13.71875 1.992188-.761719.21875-1.53125.328124-2.285156.328124zm0 0"/><path d="m232 208c-4.417969 0-8-3.578125-8-8 0-17.335938 6.820312-33.570312 19.210938-45.710938 3.148437-3.109374 8.21875-3.039062 11.3125.109376 3.089843 3.15625 3.039062 8.21875-.117188 11.3125-9.289062 9.109374-14.40625 21.28125-14.40625 34.289062 0 4.421875-3.582031 8-8 8zm0 0"/><path d="m127.996094 122.6875c-3.441406 0-6.621094-2.242188-7.660156-5.710938-1.265626-4.226562 1.136718-8.6875 5.371093-9.953124 5.925781-1.773438 12.082031-2.671876 18.292969-2.671876 4.417969 0 8 3.578126 8 8 0 4.421876-3.582031 8-8 8-4.660156 0-9.269531.671876-13.707031 2-.765625.226563-1.539063.335938-2.296875.335938zm0 0"/><path d="m88.351562 176c-4.417968 0-8-3.578125-8-8 0-17.398438 6.890626-33.648438 19.402344-45.75 3.175782-3.0625 8.234375-3 11.3125.1875 3.070313 3.179688 2.988282 8.242188-.1875 11.3125-9.367187 9.0625-14.527344 21.226562-14.527344 34.25 0 4.421875-3.582031 8-8 8zm0 0"/><path d="m310.390625 96c-3.726563 0-7.0625-2.617188-7.832031-6.40625-3.496094-17.226562-13.210938-32.570312-27.359375-43.195312-3.53125-2.65625-4.246094-7.671876-1.589844-11.203126 2.648437-3.539062 7.660156-4.242187 11.199219-1.59375 17.285156 12.984376 29.15625 31.742188 33.429687 52.804688.878907 4.335938-1.917969 8.554688-6.25 9.4375-.535156.101562-1.070312.15625-1.597656.15625zm0 0"/><path d="m248.007812 33.601562c-.527343 0-1.058593-.046874-1.597656-.15625-4.722656-.960937-9.570312-1.445312-14.410156-1.445312-4.417969 0-8-3.578125-8-8s3.582031-8 8-8c5.902344 0 11.820312.59375 17.589844 1.757812 4.328125.882813 7.128906 5.101563 6.25 9.429688-.769532 3.796875-4.105469 6.414062-7.832032 6.414062zm0 0"/><path d="m440 176c-4.417969 0-8-3.578125-8-8 0-17.648438-14.355469-32-32-32-4.417969 0-8-3.578125-8-8s3.582031-8 8-8c26.46875 0 48 21.53125 48 48 0 4.421875-3.582031 8-8 8zm0 0"/><path d="m24.085938 176c-4.417969 0-8-3.578125-8-8 0-10.414062 3.285156-20.320312 9.503906-28.648438 2.636718-3.53125 7.648437-4.265624 11.195312-1.625 3.539063 2.648438 4.269532 7.65625 1.625 11.203126-4.136718 5.539062-6.324218 12.132812-6.324218 19.070312 0 4.421875-3.582032 8-8 8zm0 0"/><path d="m370.960938 100.125c-1.894532 0-3.792969-.671875-5.320313-2.03125l-7.324219-6.507812c-3.304687-2.9375-3.601562-7.992188-.667968-11.296876 2.925781-3.304687 7.988281-3.601562 11.292968-.671874l7.347656 6.539062c3.296876 2.9375 3.585938 7.992188.648438 11.289062-1.582031 1.773438-3.773438 2.679688-5.976562 2.679688zm0 0"/><path d="m272 384c-4.417969 0-8-3.578125-8-8v-40c0-4.421875 3.582031-8 8-8s8 3.578125 8 8v40c0 4.421875-3.582031 8-8 8zm0 0"/><path d="m272 320c-2.160156 0-4.160156-.804688-5.679688-2.320312-1.523437-1.523438-2.320312-3.523438-2.320312-5.679688 0-2.078125.878906-4.164062 2.320312-5.679688 3.039063-2.960937 8.316407-2.960937 11.359376 0 1.4375 1.515626 2.320312 3.601563 2.320312 5.679688 0 1.039062-.160156 2.078125-.640625 3.039062-.402344.960938-.960937 1.835938-1.679687 2.640626-1.519532 1.515624-3.519532 2.320312-5.679688 2.320312zm0 0"/></g></svg>