<?xml version="1.0" encoding="iso-8859-1"?>
<!-- Generator: Adobe Illustrator 19.0.0, SVG Export Plug-In . SVG Version: 6.00 Build 0)  -->
<svg version="1.1" id="Capa_1" xmlns="http://www.w3.org/2000/svg" xmlns:xlink="http://www.w3.org/1999/xlink" x="0px" y="0px"
	 viewBox="0 0 472 472" style="enable-background:new 0 0 472 472;" xml:space="preserve">
<path style="fill:#884D00;" d="M371.802,132.364c-39.076-39.077-89.838-58.676-116.951-66.954
	c-11.36-3.468-23.657-0.438-32.056,7.961L51.802,244.364h336c17.673,0,32,14.327,32,32
	C419.802,276.364,427.802,188.364,371.802,132.364z"/>
<circle style="fill:#FF0000;" cx="235.802" cy="168" r="48"/>
<path style="fill:#A6001E;" d="M243.802,152h-16c0-85.156-44.859-136-120-136V0C191.693,0,243.802,58.242,243.802,152z"/>
<path style="fill:#FFFFFF;" d="M235.802,200c-23.477,0-32-19.141-32-32h16h-8l8-0.063c0.063,3.773,1.391,16.063,16,16.063V200z"/>
<g>
	<rect x="51.802" y="392" style="fill:#CF9E76;" width="368" height="48"/>
	<path style="fill:#CF9E76;" d="M171.802,276.364h-48v24c0,8.836-7.164,16-16,16s-16-7.164-16-16v-24h-40v64h120V276.364z"/>
</g>
<path style="fill:#884D00;" d="M51.802,472h336c17.673,0,32-14.327,32-32h-368V472z"/>
<path style="fill:#D4C8B8;" d="M203.802,356.364c0,8.836-7.164,16-16,16s-16-7.164-16-16v-16h-120V392h368v-51.636h-216V356.364z"/>
<path style="fill:#693B00;" d="M387.802,244.364h-336v32h40v24c0,8.836,7.164,16,16,16s16-7.164,16-16v-24h48v64v16
	c0,8.836,7.164,16,16,16s16-7.164,16-16v-16v-32h16c8.836,0,16-7.164,16-16v-16h88v16c0,11.045,8.954,20,20,20s20-8.955,20-20v-16
	h56C419.802,258.691,405.476,244.364,387.802,244.364z"/>
<path style="fill:#CF9E76;" d="M363.802,292.364c0,11.045-8.954,20-20,20s-20-8.955-20-20v-16h-88v16c0,8.836-7.164,16-16,16h-16v32
	h216v-64h-56V292.364z"/>
<g>
	<path style="fill:#FFFFFF;" d="M363.912,209.313c-7.266-43.586-43.875-66.242-44.242-66.461l8.25-13.711
		c1.758,1.055,43.266,26.484,51.773,77.547L363.912,209.313z"/>
	
		<rect x="283.805" y="107.026" transform="matrix(-0.4472 0.8944 -0.8944 -0.4472 526.0292 -93.1664)" style="fill:#FFFFFF;" width="16" height="17.888"/>
</g>
<g>
</g>
<g>
</g>
<g>
</g>
<g>
</g>
<g>
</g>
<g>
</g>
<g>
</g>
<g>
</g>
<g>
</g>
<g>
</g>
<g>
</g>
<g>
</g>
<g>
</g>
<g>
</g>
<g>
</g>
</svg>
