<?xml version="1.0" encoding="iso-8859-1"?>
<!-- Generator: Adobe Illustrator 19.0.0, SVG Export Plug-In . SVG Version: 6.00 Build 0)  -->
<svg version="1.1" id="Capa_1" xmlns="http://www.w3.org/2000/svg" xmlns:xlink="http://www.w3.org/1999/xlink" x="0px" y="0px"
	 viewBox="0 0 432.004 432.004" style="enable-background:new 0 0 432.004 432.004;" xml:space="preserve">
<polygon style="fill:#F072AE;" points="428.002,224.004 372.002,48.004 308.002,32.004 276.002,0.004 196.002,0.004 164.002,32.004 
	100.002,48.004 4.002,360.004 52.002,376.004 132.002,120.004 140.002,128.004 140.002,392.004 156.002,392.004 196.002,432.004 
	236.002,392.004 276.002,432.004 316.002,392.004 332.002,392.004 332.002,128.004 340.002,120.004 389.293,280.89 "/>
<g>
	
		<rect x="177.373" y="7.717" transform="matrix(-0.7071 0.7071 -0.7071 -0.7071 366.8781 -79.9708)" style="fill:#FFD422;" width="45.256" height="56.56"/>
	
		<rect x="243.721" y="13.403" transform="matrix(-0.7071 0.7071 -0.7071 -0.7071 489.813 -130.826)" style="fill:#FFD422;" width="56.56" height="45.256"/>
</g>
<g>
	<rect x="228.002" y="40.004" style="fill:#5AAAE7;" width="16" height="368"/>
	<rect x="260.002" y="120.004" style="fill:#5AAAE7;" width="48" height="16"/>
</g>
<rect x="28.005" y="310.742" transform="matrix(-0.3162 0.9487 -0.9487 -0.3162 366.1879 408.1506)" style="fill:#FFD422;" width="16" height="50.6"/>
<g>
	<rect x="196.002" y="120.004" style="fill:#5AAAE7;" width="16" height="16"/>
	<rect x="196.002" y="176.004" style="fill:#5AAAE7;" width="16" height="16"/>
	<rect x="196.002" y="232.004" style="fill:#5AAAE7;" width="16" height="16"/>
	<rect x="196.002" y="288.004" style="fill:#5AAAE7;" width="16" height="16"/>
	<rect x="196.002" y="344.004" style="fill:#5AAAE7;" width="16" height="16"/>
</g>
<polygon style="fill:#ED539D;" points="420.002,208.004 278.977,264.08 293.293,304.89 389.293,280.89 428.002,224.004 "/>
<rect x="308.003" y="246.711" transform="matrix(-0.9487 0.3162 -0.3162 -0.9487 701.8008 430.1342)" style="fill:#FFD422;" width="15.992" height="50.6"/>
<g>
</g>
<g>
</g>
<g>
</g>
<g>
</g>
<g>
</g>
<g>
</g>
<g>
</g>
<g>
</g>
<g>
</g>
<g>
</g>
<g>
</g>
<g>
</g>
<g>
</g>
<g>
</g>
<g>
</g>
</svg>
